<svg xmlns="http://www.w3.org/2000/svg" xmlns:xlink="http://www.w3.org/1999/xlink" width="100%" height="100%" overflow="visible" style="overflow: visible;" viewBox="0 0 150 150">
    <rect width="150" height="150" x="0" y="0" fill="#e6e6e6" fill-opacity="1" stroke="#c2c1c1" stroke-opacity="1" stroke-width="0" rx="50%" ry="50%"/>
    <path fill="#0e255e" fill-opacity="1" stroke="none" d="M11.26 57.79L11.26 57.79Q9.80 56.90 9.07 55.92L9.07 55.92L9.07 55.92Q8.34 54.94 8.34 54.04L8.34 54.04L8.34 54.04Q8.34 52.86 9.52 52.14L9.52 52.14L9.52 52.14Q9.74 52.02 10.14 52.02L10.14 52.02L10.14 52.02Q10.70 52.02 11.34 52.22L11.34 52.22L11.34 52.22Q11.98 52.42 12.32 52.75L12.32 52.75L12.32 52.75Q13.78 54.10 15.79 54.10L15.79 54.10L15.79 54.10Q16.69 54.10 18.37 53.70L18.37 53.70L18.37 53.70Q20.55 53.03 21.81 52.02L21.81 52.02L21.81 52.02Q23.07 51.02 24.81 48.89L24.81 48.89L24.81 48.89Q25.87 47.49 26.40 46.06L26.40 46.06L26.40 46.06Q26.94 44.63 26.94 43.46L26.94 43.46L26.94 43.46Q26.94 42.17 26.32 41.44L26.32 41.44L26.32 41.44Q25.20 39.93 23.83 39.17L23.83 39.17L23.83 39.17Q22.46 38.42 20.61 38.42L20.61 38.42L20.61 38.42Q18.98 38.42 17.42 38.86L17.42 38.86L14.17 39.54L14.17 39.54Q13.94 39.59 13.58 39.62L13.58 39.62L13.58 39.62Q13.22 39.65 12.54 41.27L12.54 41.27L12.54 41.27Q11.87 42.90 10.25 47.43L10.25 47.43L10.25 47.43Q9.07 50.74 8.29 52.16L8.29 52.16L8.29 52.16Q7.50 53.59 6.89 53.59L6.89 53.59L6.89 53.59Q6.22 53.59 5.43 52.36L5.43 52.36L5.43 52.36Q5.26 52.08 4.73 51.24L4.73 51.24L4.73 51.24Q4.20 50.40 4.20 49.62L4.20 49.62L4.20 49.62Q4.20 49.22 4.48 48.66L4.48 48.66L4.48 48.66Q4.76 48.16 4.96 47.66L4.96 47.66L4.96 47.66Q5.15 47.15 5.38 46.26L5.38 46.26L5.38 46.26Q6.10 44.07 9.60 35.39L9.60 35.39L9.60 35.39Q13.10 26.71 15.06 22.29L15.06 22.29L15.06 22.29Q16.46 19.10 15.90 18.93L15.90 18.93L15.90 18.93Q15.90 18.76 15.74 18.42L15.74 18.42L15.74 18.42Q15.57 18.09 15.62 17.92L15.62 17.92L15.62 17.92Q15.62 17.58 17.61 16.91L17.61 16.91L17.61 16.91Q19.60 16.24 20.33 16.35L20.33 16.35L20.66 16.35L20.66 16.35Q21.39 16.35 21.39 16.07L21.39 16.07L21.39 16.07Q21.50 16.07 22.43 15.96L22.43 15.96L22.43 15.96Q23.35 15.85 24.42 15.96L24.42 15.96L24.42 15.96Q28.39 16.30 30.69 18.23L30.69 18.23L30.69 18.23Q32.98 20.16 32.93 23.91L32.93 23.91L32.93 23.91Q32.82 25.37 31.30 27.89L31.30 27.89L31.30 27.89Q29.79 30.41 28 32.03L28 32.03L28 32.03Q27.10 32.82 25.96 33.68L25.96 33.68L25.96 33.68Q24.81 34.55 24.47 34.78L24.47 34.78L25.87 35.28L25.87 35.28Q28.50 36.29 29.96 37.74L29.96 37.74L29.96 37.74Q31.42 39.20 32.03 41.72L32.03 41.72L32.03 41.72Q32.14 42.28 32.14 42.73L32.14 42.73L32.14 42.73Q32.14 43.96 31.72 45.53L31.72 45.53L31.72 45.53Q31.30 47.10 30.80 48.27L30.80 48.27L30.80 48.27Q30.46 48.61 30.24 49L30.24 49L30.24 49Q30.02 49.39 29.96 49.50L29.96 49.50L29.96 49.50Q29.90 49.73 28.95 51.21L28.95 51.21L28.95 51.21Q28 52.70 27.27 53.59L27.27 53.59L27.27 53.59Q23.58 56.73 21.17 57.62L21.17 57.62L21.17 57.62Q18.82 58.69 15.57 58.69L15.57 58.69L15.57 58.69Q12.66 58.69 11.26 57.79L11.26 57.79ZM15.29 34.55L15.29 34.55Q15.85 34.44 17.53 34.08L17.53 34.08L17.53 34.08Q19.21 33.71 19.94 33.43L19.94 33.43L19.94 33.43Q20.05 33.38 20.64 33.07L20.64 33.07L20.64 33.07Q21.22 32.76 21.84 32.14L21.84 32.14L21.84 32.14Q25.37 28.84 26.77 26.21L26.77 26.21L26.77 26.21Q28.17 23.91 28.17 22.96L28.17 22.96L28.17 22.96Q28.17 22.29 27.55 21.67L27.55 21.67L27.55 21.67Q26.49 20.44 24.02 20.44L24.02 20.44L24.02 20.44Q22.96 20.44 22.23 20.66L22.23 20.66L22.23 20.66Q21.45 20.89 21.08 21.20L21.08 21.20L21.08 21.20Q20.72 21.50 20.72 22.12L20.72 22.12L20.72 22.12Q20.72 22.57 20.44 23.10L20.44 23.10L20.44 23.10Q20.16 23.63 19.82 23.97L19.82 23.97L19.82 23.97Q19.77 24.30 19.52 24.64L19.52 24.64L19.52 24.64Q19.26 24.98 19.15 25.09L19.15 25.09L19.15 25.09Q19.15 25.20 18.40 26.60L18.40 26.60L18.40 26.60Q17.64 28.00 16.97 29.74L16.97 29.74L16.97 29.74Q15.29 33.71 15.29 34.55L15.29 34.55ZM41.66 53.76L41.66 53.76Q38.47 53.76 36.51 51.97L36.51 51.97L36.51 51.97Q34.55 50.18 34.55 46.87L34.55 46.87L34.55 46.87Q34.55 45.58 34.72 44.02L34.72 44.02L34.72 44.02Q34.83 42.67 35.81 40.32L35.81 40.32L35.81 40.32Q36.79 37.97 38.50 35.73L38.50 35.73L38.50 35.73Q40.21 33.49 42.50 32.42L42.50 32.42L42.50 32.42Q43.57 31.92 44.30 31.72L44.30 31.72L44.30 31.72Q45.02 31.53 45.98 31.53L45.98 31.53L45.98 31.53Q48.27 31.53 49.70 32.37L49.70 32.37L49.70 32.37Q51.13 33.21 51.72 34.27L51.72 34.27L51.72 34.27Q52.30 35.34 52.30 36.12L52.30 36.12L52.30 36.40L52.30 36.57L52.30 36.57Q52.30 37.24 51.52 39.03L51.52 39.03L51.52 39.03Q50.74 40.82 49.03 42.39L49.03 42.39L49.03 42.39Q47.32 43.96 44.63 44.13L44.63 44.13L44.63 44.13Q43.29 44.13 42.03 43.88L42.03 43.88L42.03 43.88Q40.77 43.62 40.43 43.62L40.43 43.62L40.43 43.62Q39.59 43.62 39.37 44.24L39.37 44.24L39.37 44.24Q39.14 44.86 39.14 46.31L39.14 46.31L39.14 46.31Q39.31 47.88 40.01 48.50L40.01 48.50L40.01 48.50Q40.71 49.11 42.06 49.11L42.06 49.11L42.06 49.11Q42.73 49.11 43.62 48.72L43.62 48.72L43.62 48.72Q44.52 48.27 45.75 47.32L45.75 47.32L45.75 47.32Q46.42 46.76 46.82 46.54L46.82 46.54L46.82 46.54Q47.21 46.31 47.77 46.31L47.77 46.31L47.77 46.31Q48.27 46.31 48.94 46.98L48.94 46.98L48.94 46.98Q49.62 47.66 49.67 48.27L49.67 48.27L49.67 48.27Q49.56 48.94 48.44 50.29L48.44 50.29L48.44 50.29Q47.32 51.63 45.53 52.70L45.53 52.70L45.53 52.70Q43.74 53.76 41.66 53.76L41.66 53.76ZM43.62 40.26L43.62 40.26Q44.69 40.26 45.08 40.04L45.08 40.04L45.08 40.04Q45.64 39.76 46.79 38.61L46.79 38.61L46.79 38.61Q47.94 37.46 47.99 37.02L47.99 37.02L47.99 37.02Q47.99 36.46 47.52 36.09L47.52 36.09L47.52 36.09Q47.04 35.73 46.20 35.62L46.20 35.62L45.58 35.62L45.58 35.62Q44.86 35.62 43.48 36.82L43.48 36.82L43.48 36.82Q42.11 38.02 41.10 39.59L41.10 39.59L41.10 39.59Q41.16 39.87 41.94 40.07L41.94 40.07L41.94 40.07Q42.73 40.26 43.62 40.26L43.62 40.26ZM72.63 52.42L72.63 52.42Q69.10 52.30 69.10 48.44L69.10 48.44L69.10 48.44Q69.10 47.38 69.27 46.37L69.27 46.37L69.27 46.37Q69.38 45.14 69.38 44.63L69.38 44.63L69.38 44.35L69.38 43.74L69.38 43.74Q69.22 42.62 68.66 42.62L68.66 42.62L68.66 42.62Q67.65 42.62 64.93 44.55L64.93 44.55L64.93 44.55Q62.22 46.48 59.25 49.17L59.25 49.17L59.25 49.17Q58.35 50.12 57.74 50.96L57.74 50.96L57.74 50.96Q57.18 51.69 56.90 51.86L56.90 51.86L56.90 51.86Q56.62 52.02 56 52.02L56 52.02L56 52.02Q55.22 51.91 54.21 50.85L54.21 50.85L54.21 50.85Q53.20 49.78 52.86 48.94L52.86 48.94L52.86 48.94Q52.86 47.38 53.42 45.95L53.42 45.95L53.42 45.95Q53.98 44.52 55.10 42.34L55.10 42.34L55.10 42.34Q55.61 40.66 56.39 38.98L56.39 38.98L56.39 38.98Q57.23 37.02 57.60 35.98L57.60 35.98L57.60 35.98Q57.96 34.94 58.07 33.82L58.07 33.82L58.07 33.82Q58.07 33.77 58.04 33.77L58.04 33.77L58.04 33.77Q58.02 33.77 58.02 33.77L58.02 33.77L58.02 33.77Q58.02 33.54 58.18 33.38L58.18 33.38L58.18 33.38Q58.35 33.21 58.58 33.21L58.58 33.21L58.58 33.21Q58.69 33.04 59.25 33.04L59.25 33.04L59.25 33.04Q60.70 33.04 61.77 33.82L61.77 33.82L61.77 33.82Q62.83 34.61 62.83 36.23L62.83 36.23L62.83 36.23Q62.83 37.07 62.52 37.83L62.52 37.83L62.52 37.83Q62.22 38.58 61.38 40.32L61.38 40.32L60.76 41.55L60.76 41.55Q60.59 41.89 60.26 42.53L60.26 42.53L60.26 42.53Q59.92 43.18 59.92 43.34L59.92 43.34L59.92 43.34Q61.32 42.39 63.22 40.82L63.22 40.82L63.22 40.82Q66.02 38.58 67.82 37.35L67.82 37.35L67.82 37.35Q69.61 36.12 70.45 36.12L70.45 36.12L70.45 36.12Q71.18 36.12 72.49 36.93L72.49 36.93L72.49 36.93Q73.81 37.74 74.03 38.42L74.03 38.42L74.03 38.42Q74.03 38.81 73.95 39.59L73.95 39.59L73.95 39.59Q73.86 40.38 73.81 40.99L73.81 40.99L73.86 42.73L73.86 42.73Q73.92 43.18 73.92 44.07L73.92 44.07L73.92 44.07Q73.92 45.86 73.70 46.59L73.70 46.59L73.70 46.59Q73.75 46.65 73.81 46.76L73.81 46.76L73.81 46.76Q73.86 46.87 73.86 46.93L73.86 46.93L73.81 47.04L73.81 47.04Q73.86 47.60 74.42 48.83L74.42 48.83L74.42 48.83Q74.98 50.06 74.98 50.18L74.98 50.18L74.98 50.18Q74.98 50.79 74.17 51.55L74.17 51.55L74.17 51.55Q73.36 52.30 72.63 52.42L72.63 52.42ZM98.34 52.42L98.34 52.42Q94.81 52.30 94.81 48.44L94.81 48.44L94.81 48.44Q94.81 47.38 94.98 46.37L94.98 46.37L94.98 46.37Q95.09 45.14 95.09 44.63L95.09 44.63L95.09 44.35L95.09 43.74L95.09 43.74Q94.92 42.62 94.36 42.62L94.36 42.62L94.36 42.62Q93.35 42.62 90.64 44.55L90.64 44.55L90.64 44.55Q87.92 46.48 84.95 49.17L84.95 49.17L84.95 49.17Q84.06 50.12 83.44 50.96L83.44 50.96L83.44 50.96Q82.88 51.69 82.60 51.86L82.60 51.86L82.60 51.86Q82.32 52.02 81.70 52.02L81.70 52.02L81.70 52.02Q80.92 51.91 79.91 50.85L79.91 50.85L79.91 50.85Q78.90 49.78 78.57 48.94L78.57 48.94L78.57 48.94Q78.57 47.38 79.13 45.95L79.13 45.95L79.13 45.95Q79.69 44.52 80.81 42.34L80.81 42.34L80.81 42.34Q81.31 40.66 82.10 38.98L82.10 38.98L82.10 38.98Q82.94 37.02 83.30 35.98L83.30 35.98L83.30 35.98Q83.66 34.94 83.78 33.82L83.78 33.82L83.78 33.82Q83.78 33.77 83.75 33.77L83.75 33.77L83.75 33.77Q83.72 33.77 83.72 33.77L83.72 33.77L83.72 33.77Q83.72 33.54 83.89 33.38L83.89 33.38L83.89 33.38Q84.06 33.21 84.28 33.21L84.28 33.21L84.28 33.21Q84.39 33.04 84.95 33.04L84.95 33.04L84.95 33.04Q86.41 33.04 87.47 33.82L87.47 33.82L87.47 33.82Q88.54 34.61 88.54 36.23L88.54 36.23L88.54 36.23Q88.54 37.07 88.23 37.83L88.23 37.83L88.23 37.83Q87.92 38.58 87.08 40.32L87.08 40.32L86.46 41.55L86.46 41.55Q86.30 41.89 85.96 42.53L85.96 42.53L85.96 42.53Q85.62 43.18 85.62 43.34L85.62 43.34L85.62 43.34Q87.02 42.39 88.93 40.82L88.93 40.82L88.93 40.82Q91.73 38.58 93.52 37.35L93.52 37.35L93.52 37.35Q95.31 36.12 96.15 36.12L96.15 36.12L96.15 36.12Q96.88 36.12 98.20 36.93L98.20 36.93L98.20 36.93Q99.51 37.74 99.74 38.42L99.74 38.42L99.74 38.42Q99.74 38.81 99.65 39.59L99.65 39.59L99.65 39.59Q99.57 40.38 99.51 40.99L99.51 40.99L99.57 42.73L99.57 42.73Q99.62 43.18 99.62 44.07L99.62 44.07L99.62 44.07Q99.62 45.86 99.40 46.59L99.40 46.59L99.40 46.59Q99.46 46.65 99.51 46.76L99.51 46.76L99.51 46.76Q99.57 46.87 99.57 46.93L99.57 46.93L99.51 47.04L99.51 47.04Q99.57 47.60 100.13 48.83L100.13 48.83L100.13 48.83Q100.69 50.06 100.69 50.18L100.69 50.18L100.69 50.18Q100.69 50.79 99.88 51.55L99.88 51.55L99.88 51.55Q99.06 52.30 98.34 52.42L98.34 52.42ZM111.10 30.35L111.10 30.35Q110.54 29.96 110.21 29.34L110.21 29.34L110.21 29.34Q109.87 28.73 109.82 28.17L109.82 28.17L109.82 28.17Q109.76 27.61 109.93 27.50L109.93 27.50L109.93 27.50Q110.26 27.10 110.60 26.43L110.60 26.43L110.60 26.43Q110.94 25.76 111.10 25.48L111.10 25.48L111.10 25.48Q111.55 24.47 111.83 24.02L111.83 24.02L111.83 24.02Q112.22 23.24 112.56 23.18L112.56 23.18L112.56 23.18Q113.01 22.96 113.29 22.96L113.29 22.96L113.29 22.96Q114.02 22.96 114.88 23.46L114.88 23.46L114.88 23.46Q115.75 23.97 116.20 24.64L116.20 24.64L116.20 24.64Q116.59 25.54 116.59 26.21L116.59 26.21L116.59 26.21Q116.59 27.55 115.30 29.18L115.30 29.18L115.30 29.18Q114.74 29.90 113.96 30.30L113.96 30.30L113.96 30.30Q113.18 30.69 112.39 30.69L112.39 30.69L112.39 30.69Q111.61 30.69 111.10 30.35L111.10 30.35ZM105.06 52.81L105.06 52.81Q104.27 52.02 104.27 50.01L104.27 50.01L104.27 50.01Q104.27 48.94 104.55 48.38L104.55 48.38L104.55 48.38Q104.55 48.10 104.66 47.71L104.66 47.71L104.66 47.71Q104.78 47.32 104.78 47.21L104.78 47.21L104.78 47.21Q104.72 46.87 105.22 45.36L105.22 45.36L105.22 45.36Q105.90 43.85 106.93 40.71L106.93 40.71L106.93 40.71Q107.97 37.58 108.36 36.23L108.36 36.23L108.36 36.23Q108.36 35.95 108.58 35.76L108.58 35.76L108.58 35.76Q108.81 35.56 109.26 35.50L109.26 35.50L109.26 35.50Q109.87 35.28 110.82 36.04L110.82 36.04L110.82 36.04Q111.78 36.79 112.39 37.74L112.39 37.74L112.39 37.74Q112.73 38.08 112.73 38.64L112.73 38.64L112.73 38.64Q112.73 39.48 112.00 40.99L112.00 40.99L112.00 40.99Q111.72 41.61 111.47 42.50L111.47 42.50L111.47 42.50Q111.22 43.40 111.05 44.18L111.05 44.18L111.05 44.18Q110.38 45.70 109.98 46.98L109.98 46.98L109.98 46.98Q109.82 47.71 109.76 48.10L109.76 48.10L109.76 48.10Q109.37 50.18 109.03 50.79L109.03 50.79L109.03 50.79Q108.70 52.19 108.08 52.89L108.08 52.89L108.08 52.89Q107.46 53.59 106.68 53.59L106.68 53.59L106.68 53.59Q105.73 53.59 105.06 52.81L105.06 52.81ZM122.75 53.76L122.75 53.76Q119.56 53.76 117.60 51.97L117.60 51.97L117.60 51.97Q115.64 50.18 115.64 46.87L115.64 46.87L115.64 46.87Q115.64 45.58 115.81 44.02L115.81 44.02L115.81 44.02Q115.92 42.67 116.90 40.32L116.90 40.32L116.90 40.32Q117.88 37.97 119.59 35.73L119.59 35.73L119.59 35.73Q121.30 33.49 123.59 32.42L123.59 32.42L123.59 32.42Q124.66 31.92 125.38 31.72L125.38 31.72L125.38 31.72Q126.11 31.53 127.06 31.53L127.06 31.53L127.06 31.53Q129.36 31.53 130.79 32.37L130.79 32.37L130.79 32.37Q132.22 33.21 132.80 34.27L132.80 34.27L132.80 34.27Q133.39 35.34 133.39 36.12L133.39 36.12L133.39 36.40L133.39 36.57L133.39 36.57Q133.39 37.24 132.61 39.03L132.61 39.03L132.61 39.03Q131.82 40.82 130.12 42.39L130.12 42.39L130.12 42.39Q128.41 43.96 125.72 44.13L125.72 44.13L125.72 44.13Q124.38 44.13 123.12 43.88L123.12 43.88L123.12 43.88Q121.86 43.62 121.52 43.62L121.52 43.62L121.52 43.62Q120.68 43.62 120.46 44.24L120.46 44.24L120.46 44.24Q120.23 44.86 120.23 46.31L120.23 46.31L120.23 46.31Q120.40 47.88 121.10 48.50L121.10 48.50L121.10 48.50Q121.80 49.11 123.14 49.11L123.14 49.11L123.14 49.11Q123.82 49.11 124.71 48.72L124.71 48.72L124.71 48.72Q125.61 48.27 126.84 47.32L126.84 47.32L126.84 47.32Q127.51 46.76 127.90 46.54L127.90 46.54L127.90 46.54Q128.30 46.31 128.86 46.31L128.86 46.31L128.86 46.31Q129.36 46.31 130.03 46.98L130.03 46.98L130.03 46.98Q130.70 47.66 130.76 48.27L130.76 48.27L130.76 48.27Q130.65 48.94 129.53 50.29L129.53 50.29L129.53 50.29Q128.41 51.63 126.62 52.70L126.62 52.70L126.62 52.70Q124.82 53.76 122.75 53.76L122.75 53.76ZM124.71 40.26L124.71 40.26Q125.78 40.26 126.17 40.04L126.17 40.04L126.17 40.04Q126.73 39.76 127.88 38.61L127.88 38.61L127.88 38.61Q129.02 37.46 129.08 37.02L129.08 37.02L129.08 37.02Q129.08 36.46 128.60 36.09L128.60 36.09L128.60 36.09Q128.13 35.73 127.29 35.62L127.29 35.62L126.67 35.62L126.67 35.62Q125.94 35.62 124.57 36.82L124.57 36.82L124.57 36.82Q123.20 38.02 122.19 39.59L122.19 39.59L122.19 39.59Q122.25 39.87 123.03 40.07L123.03 40.07L123.03 40.07Q123.82 40.26 124.71 40.26L124.71 40.26Z" transform="translate(5,37.5)"/>
</svg>
