<?xml version="1.0" standalone="no"?>
<!DOCTYPE svg PUBLIC "-//W3C//DTD SVG 20010904//EN"
 "http://www.w3.org/TR/2001/REC-SVG-20010904/DTD/svg10.dtd">
<svg version="1.0" xmlns="http://www.w3.org/2000/svg"
 width="700.000000pt" height="700.000000pt" viewBox="0 0 700.000000 700.000000"
 preserveAspectRatio="xMidYMid meet">
<metadata>
Created by potrace 1.11, written by Peter Selinger 2001-2013
</metadata>
<g transform="translate(0.000000,700.000000) scale(0.100000,-0.100000)"
fill="#000000" stroke="none">
<path d="M1186 4489 c-94 -17 -211 -54 -221 -69 -2 -4 1 -23 7 -44 14 -45 16
-40 -104 -326 -127 -302 -328 -804 -376 -940 -22 -63 -46 -129 -53 -146 -16
-40 -8 -69 41 -142 87 -130 114 -99 260 294 83 222 103 268 119 278 27 17 266
59 336 59 120 0 206 -46 267 -142 60 -95 20 -235 -110 -387 -115 -135 -250
-200 -396 -192 -66 3 -80 7 -130 42 -91 62 -163 59 -191 -8 -30 -72 29 -162
143 -218 63 -31 73 -33 177 -33 60 0 135 6 165 14 135 33 345 165 413 260 174
242 228 413 177 565 -37 112 -146 208 -296 259 l-36 13 98 79 c55 45 121 111
151 150 68 90 131 211 139 267 13 93 -32 218 -99 274 -50 42 -149 84 -234 99
-97 18 -124 17 -247 -6z m279 -214 c17 -7 40 -23 52 -36 40 -44 38 -67 -12
-168 -70 -139 -230 -323 -322 -369 -31 -16 -201 -62 -228 -62 -29 0 114 348
200 485 32 50 42 73 49 107 4 15 15 32 27 38 55 30 170 32 234 5z"/>
<path d="M5492 4167 c-26 -14 -132 -200 -132 -232 0 -28 34 -80 65 -101 59
-38 157 3 213 89 22 34 27 54 27 104 0 71 -21 102 -90 134 -47 22 -53 22 -83
6z"/>
<path d="M2277 3760 c-174 -62 -311 -220 -398 -460 -20 -56 -23 -84 -24 -205
0 -130 2 -144 25 -189 65 -127 226 -191 380 -152 98 25 206 105 268 198 25 38
25 40 9 74 -10 20 -31 41 -51 50 -39 19 -42 18 -157 -60 -62 -43 -81 -51 -128
-54 -102 -6 -150 53 -138 171 7 78 17 83 144 68 173 -20 249 4 344 106 104
113 144 244 101 330 -59 116 -234 173 -375 123z m168 -194 c40 -26 31 -53 -38
-122 -69 -70 -93 -79 -171 -70 -93 12 -96 22 -29 95 85 94 129 124 176 118 21
-3 49 -12 62 -21z"/>
<path d="M6105 3773 c-52 -8 -168 -68 -216 -111 -85 -76 -187 -243 -227 -373
-28 -91 -38 -233 -22 -311 27 -123 117 -206 251 -228 80 -14 144 -7 209 21
103 45 230 172 230 229 0 32 -58 90 -89 90 -10 0 -41 -16 -67 -35 -98 -70
-136 -89 -188 -93 -98 -8 -153 63 -139 178 8 73 15 76 142 61 170 -21 268 11
356 115 94 109 133 244 93 319 -53 100 -198 161 -333 138z m102 -193 c17 -6
35 -22 41 -35 9 -20 7 -30 -17 -62 -16 -22 -48 -55 -72 -74 -39 -30 -50 -34
-104 -34 -73 1 -115 11 -115 28 0 21 101 128 149 159 49 30 71 34 118 18z"/>
<path d="M2964 3696 c-14 -10 -23 -31 -27 -60 -7 -47 -97 -283 -173 -449 -49
-107 -69 -184 -60 -223 12 -48 117 -144 156 -144 7 0 60 49 118 108 146 147
369 314 439 328 48 10 54 -12 51 -188 -3 -172 3 -196 61 -235 51 -35 111 -31
156 8 48 42 51 63 19 134 -25 58 -26 66 -25 240 1 99 4 195 7 212 5 28 1 37
-27 64 -44 41 -101 69 -140 69 -18 0 -54 -14 -83 -31 -39 -24 -274 -198 -394
-292 -16 -13 -13 -6 62 148 39 80 50 113 53 165 4 56 2 69 -17 93 -41 52 -137
81 -176 53z"/>
<path d="M4164 3696 c-13 -10 -23 -30 -27 -55 -6 -45 -106 -308 -172 -452 -49
-105 -70 -186 -61 -225 12 -48 117 -144 156 -144 6 0 60 49 118 108 152 153
366 313 440 328 47 10 53 -12 50 -193 -3 -139 -1 -162 15 -186 47 -72 142 -89
201 -36 19 16 38 39 41 49 3 10 -6 47 -20 82 -26 61 -27 69 -25 253 0 105 3
199 6 211 11 42 -101 124 -167 124 -18 0 -54 -14 -83 -31 -39 -24 -304 -220
-394 -292 -17 -14 -7 12 62 152 48 98 56 122 56 171 0 85 -41 129 -135 144
-28 5 -46 2 -61 -8z"/>
<path d="M5302 3578 c-5 -7 -28 -69 -50 -138 -22 -69 -57 -170 -77 -225 -42
-115 -75 -249 -75 -303 0 -90 38 -148 103 -159 32 -5 40 -1 66 26 31 33 61
110 85 221 15 67 56 195 107 333 43 116 40 137 -25 203 -45 44 -61 54 -89 54
-19 0 -39 -6 -45 -12z"/>
</g>
</svg>
